<mxfile host="65bd71144e">
    <diagram id="Q7c9CSUIZEit7e__r4Du" name="Page-1">
        <mxGraphModel dx="1263" dy="146" grid="1" gridSize="10" guides="1" tooltips="1" connect="1" arrows="1" fold="1" page="1" pageScale="1" pageWidth="850" pageHeight="1100" background="#ffffff" math="0" shadow="0">
            <root>
                <mxCell id="0"/>
                <mxCell id="1" parent="0"/>
                <mxCell id="2" value="" style="rounded=1;whiteSpace=wrap;html=1;strokeWidth=0;labelBackgroundColor=default;strokeColor=#000000;fillColor=#000000;" vertex="1" parent="1">
                    <mxGeometry x="260" y="110" width="530" height="60" as="geometry"/>
                </mxCell>
                <mxCell id="3" value="&lt;h1&gt;&lt;font color=&quot;#000000&quot; style=&quot;font-size: 20px;&quot;&gt;Kernel&lt;/font&gt;&lt;/h1&gt;" style="text;html=1;strokeColor=none;fillColor=none;align=center;verticalAlign=middle;whiteSpace=wrap;rounded=0;" vertex="1" parent="1">
                    <mxGeometry x="500" y="80" width="60" height="30" as="geometry"/>
                </mxCell>
                <mxCell id="4" value="&lt;h1&gt;&lt;font style=&quot;font-size: 17px;&quot;&gt;ELF&lt;/font&gt;&lt;/h1&gt;" style="text;html=1;strokeColor=none;fillColor=none;align=center;verticalAlign=middle;whiteSpace=wrap;rounded=0;fontColor=#FFFFFF;" vertex="1" parent="1">
                    <mxGeometry x="270" y="125" width="60" height="30" as="geometry"/>
                </mxCell>
                <mxCell id="5" value="" style="endArrow=none;html=1;fontFamily=Helvetica;fontSize=20;fontColor=#000000;strokeWidth=2;fillColor=#008a00;strokeColor=#005700;entryX=0.146;entryY=0.998;entryDx=0;entryDy=0;entryPerimeter=0;exitX=0.146;exitY=0.003;exitDx=0;exitDy=0;exitPerimeter=0;" edge="1" parent="1" source="2" target="2">
                    <mxGeometry width="50" height="50" relative="1" as="geometry">
                        <mxPoint x="340" y="110" as="sourcePoint"/>
                        <mxPoint x="340" y="170" as="targetPoint"/>
                    </mxGeometry>
                </mxCell>
                <mxCell id="6" value="&lt;h1&gt;&lt;font style=&quot;font-size: 17px;&quot;&gt;Loader&lt;/font&gt;&lt;/h1&gt;" style="text;html=1;strokeColor=none;fillColor=none;align=center;verticalAlign=middle;whiteSpace=wrap;rounded=0;fontColor=#FFFFFF;" vertex="1" parent="1">
                    <mxGeometry x="380" y="125" width="60" height="30" as="geometry"/>
                </mxCell>
                <mxCell id="7" value="&lt;h1&gt;&lt;font style=&quot;font-size: 17px;&quot;&gt;Data&lt;/font&gt;&lt;/h1&gt;" style="text;html=1;strokeColor=none;fillColor=none;align=center;verticalAlign=middle;whiteSpace=wrap;rounded=0;fontColor=#FFFFFF;" vertex="1" parent="1">
                    <mxGeometry x="500" y="125" width="60" height="30" as="geometry"/>
                </mxCell>
                <mxCell id="8" value="" style="rounded=0;whiteSpace=wrap;html=1;strokeColor=#23445d;strokeWidth=0;fontFamily=Helvetica;fontSize=20;fillColor=#4C5257;" vertex="1" parent="1">
                    <mxGeometry x="630" y="120" width="120" height="40" as="geometry"/>
                </mxCell>
                <mxCell id="9" value="&lt;h1&gt;&lt;font style=&quot;font-size: 13px;&quot;&gt;ELF&lt;/font&gt;&lt;/h1&gt;" style="text;html=1;strokeColor=none;fillColor=none;align=center;verticalAlign=middle;whiteSpace=wrap;rounded=0;" vertex="1" parent="1">
                    <mxGeometry x="630" y="125" width="60" height="22.5" as="geometry"/>
                </mxCell>
                <mxCell id="10" value="" style="endArrow=none;html=1;fontFamily=Helvetica;fontSize=20;fontColor=#000000;strokeWidth=2;fillColor=#008a00;strokeColor=#005700;entryX=0.146;entryY=0.998;entryDx=0;entryDy=0;entryPerimeter=0;exitX=0.146;exitY=0.003;exitDx=0;exitDy=0;exitPerimeter=0;" edge="1" parent="1">
                    <mxGeometry width="50" height="50" relative="1" as="geometry">
                        <mxPoint x="470" y="110.30000000000001" as="sourcePoint"/>
                        <mxPoint x="470" y="170" as="targetPoint"/>
                    </mxGeometry>
                </mxCell>
                <mxCell id="11" value="" style="endArrow=none;html=1;fontFamily=Helvetica;fontSize=20;fontColor=#000000;strokeWidth=2;fillColor=#008a00;strokeColor=#005700;entryX=0.146;entryY=0.998;entryDx=0;entryDy=0;entryPerimeter=0;exitX=0.146;exitY=0.003;exitDx=0;exitDy=0;exitPerimeter=0;" edge="1" parent="1">
                    <mxGeometry width="50" height="50" relative="1" as="geometry">
                        <mxPoint x="590" y="110" as="sourcePoint"/>
                        <mxPoint x="590" y="169.7" as="targetPoint"/>
                    </mxGeometry>
                </mxCell>
                <mxCell id="12" value="" style="endArrow=none;html=1;fontFamily=Helvetica;fontSize=20;fontColor=#000000;strokeWidth=2;fillColor=#008a00;strokeColor=#999999;exitX=0.146;exitY=0.003;exitDx=0;exitDy=0;exitPerimeter=0;" edge="1" parent="1">
                    <mxGeometry width="50" height="50" relative="1" as="geometry">
                        <mxPoint x="690" y="120" as="sourcePoint"/>
                        <mxPoint x="690" y="160" as="targetPoint"/>
                    </mxGeometry>
                </mxCell>
                <mxCell id="13" value="&lt;h1&gt;&lt;font style=&quot;font-size: 13px;&quot;&gt;. . .&lt;/font&gt;&lt;/h1&gt;" style="text;html=1;strokeColor=none;fillColor=none;align=center;verticalAlign=middle;whiteSpace=wrap;rounded=0;" vertex="1" parent="1">
                    <mxGeometry x="690" y="125" width="60" height="22.5" as="geometry"/>
                </mxCell>
                <mxCell id="14" value="" style="endArrow=classic;html=1;strokeColor=#AD0000;strokeWidth=2;fontFamily=Helvetica;fontSize=13;fontColor=#000000;" edge="1" parent="1">
                    <mxGeometry width="50" height="50" relative="1" as="geometry">
                        <mxPoint x="690" y="200" as="sourcePoint"/>
                        <mxPoint x="690" y="160" as="targetPoint"/>
                    </mxGeometry>
                </mxCell>
                <mxCell id="15" value="App&lt;br&gt;mode réel (voir plus tard pour mode protégé)" style="text;html=1;strokeColor=none;fillColor=none;align=center;verticalAlign=middle;whiteSpace=wrap;rounded=0;strokeWidth=0;fontFamily=Helvetica;fontSize=13;fontColor=#000000;" vertex="1" parent="1">
                    <mxGeometry x="605" y="210" width="170" height="40" as="geometry"/>
                </mxCell>
                <mxCell id="16" value="" style="endArrow=classic;html=1;strokeColor=#AD0000;strokeWidth=2;fontFamily=Helvetica;fontSize=13;fontColor=#000000;entryX=0;entryY=0.5;entryDx=0;entryDy=0;" edge="1" parent="1" target="2">
                    <mxGeometry width="50" height="50" relative="1" as="geometry">
                        <mxPoint x="210" y="140" as="sourcePoint"/>
                        <mxPoint x="220" y="125" as="targetPoint"/>
                    </mxGeometry>
                </mxCell>
                <mxCell id="17" value="Grub" style="text;html=1;strokeColor=none;fillColor=none;align=center;verticalAlign=middle;whiteSpace=wrap;rounded=0;strokeWidth=0;fontFamily=Helvetica;fontSize=13;fontColor=#000000;" vertex="1" parent="1">
                    <mxGeometry x="150" y="125" width="60" height="30" as="geometry"/>
                </mxCell>
                <mxCell id="18" value="" style="endArrow=classic;html=1;strokeColor=#AD0000;strokeWidth=2;fontFamily=Helvetica;fontSize=13;fontColor=#000000;entryX=0.284;entryY=1.017;entryDx=0;entryDy=0;entryPerimeter=0;exitX=0.5;exitY=0;exitDx=0;exitDy=0;" edge="1" parent="1" source="19" target="2">
                    <mxGeometry width="50" height="50" relative="1" as="geometry">
                        <mxPoint x="406" y="210" as="sourcePoint"/>
                        <mxPoint x="700" y="170" as="targetPoint"/>
                    </mxGeometry>
                </mxCell>
                <mxCell id="19" value="Charge un exécutable dans la zone mémoire" style="text;html=1;strokeColor=none;fillColor=none;align=center;verticalAlign=middle;whiteSpace=wrap;rounded=0;strokeWidth=0;fontFamily=Helvetica;fontSize=13;fontColor=#000000;" vertex="1" parent="1">
                    <mxGeometry x="345" y="210" width="130" height="40" as="geometry"/>
                </mxCell>
                <mxCell id="22" value="&lt;ul&gt;&lt;li&gt;Une tructure où tout est embarqué &lt;b&gt;-&amp;gt;&lt;/b&gt; voir plus tard pour ajouter un &lt;b&gt;context switching&lt;/b&gt;&lt;/li&gt;&lt;li&gt;Le noyau contient nativement tous les exécutables possible&lt;/li&gt;&lt;li&gt;Le noyau est pensé pour préparer l'arrivé d'une exécution futur en mode protégé&lt;/li&gt;&lt;/ul&gt;" style="rounded=0;whiteSpace=wrap;html=1;strokeColor=#000000;strokeWidth=2;fontFamily=Helvetica;fontSize=13;fontColor=#ffffff;fillColor=#6a00ff;spacingTop=0;spacing=4;align=left;" vertex="1" parent="1">
                    <mxGeometry x="-230" y="55" width="250" height="170" as="geometry"/>
                </mxCell>
                <mxCell id="23" value="" style="shape=flexArrow;endArrow=classic;html=1;strokeWidth=2;fontFamily=Helvetica;fontSize=14;fontColor=#000000;fillColor=#000000;strokeColor=#000000;" edge="1" parent="1">
                    <mxGeometry width="50" height="50" relative="1" as="geometry">
                        <mxPoint x="40" y="139.52" as="sourcePoint"/>
                        <mxPoint x="150" y="139.52" as="targetPoint"/>
                    </mxGeometry>
                </mxCell>
            </root>
        </mxGraphModel>
    </diagram>
</mxfile>